<mxfile host="app.diagrams.net" modified="2021-07-22T21:36:57.406Z" agent="5.0 (X11; Linux x86_64) AppleWebKit/537.36 (KHTML, like Gecko) Chrome/91.0.4472.114 Safari/537.36" etag="lSkjqTwEW1oMGuEw7TDd" version="14.9.0" type="github">
  <diagram id="RSU8EzeiBVL8Lz67zNbf" name="Page-1">
    <mxGraphModel dx="2881" dy="1009" grid="1" gridSize="10" guides="1" tooltips="1" connect="1" arrows="1" fold="1" page="1" pageScale="1" pageWidth="850" pageHeight="1100" math="0" shadow="0">
      <root>
        <mxCell id="0" />
        <mxCell id="1" parent="0" />
        <mxCell id="AgpCbO9FbuPy1deqUi69-28" value="" style="shape=table;html=1;whiteSpace=wrap;startSize=0;container=1;collapsible=0;childLayout=tableLayout;fontFamily=Times New Roman;fontSize=14;" vertex="1" parent="1">
          <mxGeometry y="1070" width="1440" height="33" as="geometry" />
        </mxCell>
        <mxCell id="AgpCbO9FbuPy1deqUi69-29" value="" style="shape=partialRectangle;html=1;whiteSpace=wrap;collapsible=0;dropTarget=0;pointerEvents=0;fillColor=none;top=0;left=0;bottom=0;right=0;points=[[0,0.5],[1,0.5]];portConstraint=eastwest;fontFamily=Times New Roman;fontSize=14;" vertex="1" parent="AgpCbO9FbuPy1deqUi69-28">
          <mxGeometry width="1440" height="33" as="geometry" />
        </mxCell>
        <mxCell id="AgpCbO9FbuPy1deqUi69-30" value="Message Type: 8" style="shape=partialRectangle;html=1;whiteSpace=wrap;connectable=0;fillColor=#fff2cc;top=0;left=0;bottom=0;right=0;overflow=hidden;strokeColor=#d6b656;fontFamily=Times New Roman;fontSize=14;" vertex="1" parent="AgpCbO9FbuPy1deqUi69-29">
          <mxGeometry width="120" height="33" as="geometry" />
        </mxCell>
        <mxCell id="AgpCbO9FbuPy1deqUi69-31" value="Counter&lt;sub&gt;Sa&lt;/sub&gt;" style="shape=partialRectangle;html=1;whiteSpace=wrap;connectable=0;fillColor=#fff2cc;top=0;left=0;bottom=0;right=0;overflow=hidden;strokeColor=#d6b656;fontFamily=Times New Roman;fontSize=14;" vertex="1" parent="AgpCbO9FbuPy1deqUi69-29">
          <mxGeometry x="120" width="120" height="33" as="geometry" />
        </mxCell>
        <mxCell id="AgpCbO9FbuPy1deqUi69-32" value="GCM IV" style="shape=partialRectangle;html=1;whiteSpace=wrap;connectable=0;fillColor=#fff2cc;top=0;left=0;bottom=0;right=0;overflow=hidden;strokeColor=#d6b656;fontFamily=Times New Roman;fontSize=14;" vertex="1" parent="AgpCbO9FbuPy1deqUi69-29">
          <mxGeometry x="240" width="120" height="33" as="geometry" />
        </mxCell>
        <mxCell id="AgpCbO9FbuPy1deqUi69-33" value="g&lt;span style=&quot;font-size: 14px;&quot;&gt;&lt;sup style=&quot;font-size: 14px;&quot;&gt;b&#39;&lt;/sup&gt;&lt;/span&gt;" style="shape=partialRectangle;html=1;whiteSpace=wrap;connectable=0;top=0;left=0;bottom=0;right=0;overflow=hidden;fillColor=#fff2cc;strokeColor=#d6b656;fontFamily=Times New Roman;fontSize=14;" vertex="1" parent="AgpCbO9FbuPy1deqUi69-29">
          <mxGeometry x="360" width="120" height="33" as="geometry" />
        </mxCell>
        <mxCell id="AgpCbO9FbuPy1deqUi69-34" value="RSA Public Key B" style="shape=partialRectangle;html=1;whiteSpace=wrap;connectable=0;fillColor=#fff2cc;top=0;left=0;bottom=0;right=0;overflow=hidden;strokeColor=#d6b656;fontFamily=Times New Roman;fontSize=14;" vertex="1" parent="AgpCbO9FbuPy1deqUi69-29">
          <mxGeometry x="480" width="120" height="33" as="geometry" />
        </mxCell>
        <mxCell id="AgpCbO9FbuPy1deqUi69-35" value="Counter&lt;sub&gt;Ba&lt;/sub&gt;" style="shape=partialRectangle;html=1;whiteSpace=wrap;connectable=0;top=0;left=0;bottom=0;right=0;overflow=hidden;fontSize=14;fillColor=#f8cecc;strokeColor=#b85450;fontFamily=Times New Roman;" vertex="1" parent="AgpCbO9FbuPy1deqUi69-29">
          <mxGeometry x="600" width="120" height="33" as="geometry" />
        </mxCell>
        <mxCell id="AgpCbO9FbuPy1deqUi69-36" value="&lt;span&gt;GCM IV&lt;/span&gt;" style="shape=partialRectangle;html=1;whiteSpace=wrap;connectable=0;top=0;left=0;bottom=0;right=0;overflow=hidden;fontSize=14;fillColor=#f8cecc;strokeColor=#b85450;fontFamily=Times New Roman;" vertex="1" parent="AgpCbO9FbuPy1deqUi69-29">
          <mxGeometry x="720" width="120" height="33" as="geometry" />
        </mxCell>
        <mxCell id="AgpCbO9FbuPy1deqUi69-37" value="&amp;lt;&lt;span&gt;H(g&lt;/span&gt;&lt;sup style=&quot;font-size: 14px&quot;&gt;a&#39;&lt;/sup&gt;&lt;span style=&quot;font-size: 14px&quot;&gt;,&amp;nbsp;&lt;/span&gt;&lt;span&gt;g&lt;/span&gt;&lt;sup style=&quot;font-size: 14px&quot;&gt;b&#39;&lt;/sup&gt;&lt;font&gt;&lt;font style=&quot;font-size: 14px&quot;&gt;)&lt;/font&gt;&lt;/font&gt;&amp;gt;&lt;sub style=&quot;font-size: 11px&quot;&gt;B&lt;/sub&gt;" style="shape=partialRectangle;html=1;whiteSpace=wrap;connectable=0;top=0;left=0;bottom=0;right=0;overflow=hidden;fontSize=14;fillColor=#d5e8d4;strokeColor=#82b366;fontFamily=Times New Roman;" vertex="1" parent="AgpCbO9FbuPy1deqUi69-29">
          <mxGeometry x="840" width="120" height="33" as="geometry" />
        </mxCell>
        <mxCell id="AgpCbO9FbuPy1deqUi69-38" value="Tag" style="shape=partialRectangle;html=1;whiteSpace=wrap;connectable=0;top=0;left=0;bottom=0;right=0;overflow=hidden;fontSize=14;fontFamily=Times New Roman;" vertex="1" parent="AgpCbO9FbuPy1deqUi69-29">
          <mxGeometry x="960" width="120" height="33" as="geometry" />
        </mxCell>
        <mxCell id="AgpCbO9FbuPy1deqUi69-39" value="Sender Username" style="shape=partialRectangle;html=1;whiteSpace=wrap;connectable=0;fillColor=#b0e3e6;top=0;left=0;bottom=0;right=0;overflow=hidden;strokeColor=#0e8088;fontFamily=Times New Roman;fontSize=14;" vertex="1" parent="AgpCbO9FbuPy1deqUi69-29">
          <mxGeometry x="1080" width="120" height="33" as="geometry" />
        </mxCell>
        <mxCell id="AgpCbO9FbuPy1deqUi69-40" value="Receiver username" style="shape=partialRectangle;html=1;whiteSpace=wrap;connectable=0;fillColor=#b0e3e6;top=0;left=0;bottom=0;right=0;overflow=hidden;strokeColor=#0e8088;fontFamily=Times New Roman;fontSize=14;" vertex="1" parent="AgpCbO9FbuPy1deqUi69-29">
          <mxGeometry x="1200" width="120" height="33" as="geometry" />
        </mxCell>
        <mxCell id="AgpCbO9FbuPy1deqUi69-41" value="Tag" style="shape=partialRectangle;html=1;whiteSpace=wrap;connectable=0;top=0;left=0;bottom=0;right=0;overflow=hidden;fontSize=14;fontFamily=Times New Roman;" vertex="1" parent="AgpCbO9FbuPy1deqUi69-29">
          <mxGeometry x="1320" width="120" height="33" as="geometry" />
        </mxCell>
        <mxCell id="AgpCbO9FbuPy1deqUi69-42" value="" style="shape=table;html=1;whiteSpace=wrap;startSize=0;container=1;collapsible=0;childLayout=tableLayout;fontFamily=Times New Roman;fontSize=14;" vertex="1" parent="1">
          <mxGeometry y="1190" width="1200" height="33" as="geometry" />
        </mxCell>
        <mxCell id="AgpCbO9FbuPy1deqUi69-43" value="" style="shape=partialRectangle;html=1;whiteSpace=wrap;collapsible=0;dropTarget=0;pointerEvents=0;fillColor=none;top=0;left=0;bottom=0;right=0;points=[[0,0.5],[1,0.5]];portConstraint=eastwest;fontFamily=Times New Roman;fontSize=14;" vertex="1" parent="AgpCbO9FbuPy1deqUi69-42">
          <mxGeometry width="1200" height="33" as="geometry" />
        </mxCell>
        <mxCell id="AgpCbO9FbuPy1deqUi69-44" value="Message Type: 9" style="shape=partialRectangle;html=1;whiteSpace=wrap;connectable=0;fillColor=#fff2cc;top=0;left=0;bottom=0;right=0;overflow=hidden;strokeColor=#d6b656;fontFamily=Times New Roman;fontSize=14;" vertex="1" parent="AgpCbO9FbuPy1deqUi69-43">
          <mxGeometry width="120" height="33" as="geometry" />
        </mxCell>
        <mxCell id="AgpCbO9FbuPy1deqUi69-45" value="Counter&lt;sub&gt;As&lt;/sub&gt;" style="shape=partialRectangle;html=1;whiteSpace=wrap;connectable=0;fillColor=#fff2cc;top=0;left=0;bottom=0;right=0;overflow=hidden;strokeColor=#d6b656;fontFamily=Times New Roman;fontSize=14;" vertex="1" parent="AgpCbO9FbuPy1deqUi69-43">
          <mxGeometry x="120" width="120" height="33" as="geometry" />
        </mxCell>
        <mxCell id="AgpCbO9FbuPy1deqUi69-46" value="GCM IV" style="shape=partialRectangle;html=1;whiteSpace=wrap;connectable=0;fillColor=#fff2cc;top=0;left=0;bottom=0;right=0;overflow=hidden;strokeColor=#d6b656;fontFamily=Times New Roman;fontSize=14;" vertex="1" parent="AgpCbO9FbuPy1deqUi69-43">
          <mxGeometry x="240" width="120" height="33" as="geometry" />
        </mxCell>
        <mxCell id="AgpCbO9FbuPy1deqUi69-47" value="Counter&lt;sub&gt;Ab&lt;/sub&gt;" style="shape=partialRectangle;html=1;whiteSpace=wrap;connectable=0;top=0;left=0;bottom=0;right=0;overflow=hidden;fontSize=14;fillColor=#f8cecc;strokeColor=#b85450;fontFamily=Times New Roman;" vertex="1" parent="AgpCbO9FbuPy1deqUi69-43">
          <mxGeometry x="360" width="120" height="33" as="geometry" />
        </mxCell>
        <mxCell id="AgpCbO9FbuPy1deqUi69-48" value="&lt;span&gt;GCM IV&lt;/span&gt;" style="shape=partialRectangle;html=1;whiteSpace=wrap;connectable=0;top=0;left=0;bottom=0;right=0;overflow=hidden;fontSize=14;fillColor=#f8cecc;strokeColor=#b85450;fontFamily=Times New Roman;" vertex="1" parent="AgpCbO9FbuPy1deqUi69-43">
          <mxGeometry x="480" width="120" height="33" as="geometry" />
        </mxCell>
        <mxCell id="AgpCbO9FbuPy1deqUi69-49" value="&amp;lt;H(&lt;span&gt;g&lt;/span&gt;&lt;sup style=&quot;font-size: 14px&quot;&gt;b&#39;&lt;/sup&gt;&lt;span&gt;&amp;nbsp;g&lt;/span&gt;&lt;sup style=&quot;font-size: 14px&quot;&gt;a&#39;&lt;/sup&gt;&lt;font style=&quot;font-size: 14px&quot;&gt;)&lt;/font&gt;&amp;gt;&lt;font style=&quot;font-size: 11px&quot;&gt;&lt;sub&gt;A&lt;/sub&gt;&lt;/font&gt;" style="shape=partialRectangle;html=1;whiteSpace=wrap;connectable=0;top=0;left=0;bottom=0;right=0;overflow=hidden;fontSize=14;fillColor=#d5e8d4;strokeColor=#82b366;fontFamily=Times New Roman;" vertex="1" parent="AgpCbO9FbuPy1deqUi69-43">
          <mxGeometry x="600" width="120" height="33" as="geometry" />
        </mxCell>
        <mxCell id="AgpCbO9FbuPy1deqUi69-50" value="Tag" style="shape=partialRectangle;html=1;whiteSpace=wrap;connectable=0;top=0;left=0;bottom=0;right=0;overflow=hidden;fontSize=14;fontFamily=Times New Roman;" vertex="1" parent="AgpCbO9FbuPy1deqUi69-43">
          <mxGeometry x="720" width="120" height="33" as="geometry" />
        </mxCell>
        <mxCell id="AgpCbO9FbuPy1deqUi69-51" value="Sender Username" style="shape=partialRectangle;html=1;whiteSpace=wrap;connectable=0;fillColor=#b0e3e6;top=0;left=0;bottom=0;right=0;overflow=hidden;strokeColor=#0e8088;fontFamily=Times New Roman;fontSize=14;" vertex="1" parent="AgpCbO9FbuPy1deqUi69-43">
          <mxGeometry x="840" width="120" height="33" as="geometry" />
        </mxCell>
        <mxCell id="AgpCbO9FbuPy1deqUi69-52" value="Receiver username" style="shape=partialRectangle;html=1;whiteSpace=wrap;connectable=0;fillColor=#b0e3e6;top=0;left=0;bottom=0;right=0;overflow=hidden;strokeColor=#0e8088;fontFamily=Times New Roman;fontSize=14;" vertex="1" parent="AgpCbO9FbuPy1deqUi69-43">
          <mxGeometry x="960" width="120" height="33" as="geometry" />
        </mxCell>
        <mxCell id="AgpCbO9FbuPy1deqUi69-53" value="Tag" style="shape=partialRectangle;html=1;whiteSpace=wrap;connectable=0;top=0;left=0;bottom=0;right=0;overflow=hidden;fontSize=14;fontFamily=Times New Roman;" vertex="1" parent="AgpCbO9FbuPy1deqUi69-43">
          <mxGeometry x="1080" width="120" height="33" as="geometry" />
        </mxCell>
        <mxCell id="AgpCbO9FbuPy1deqUi69-54" value="" style="shape=table;html=1;whiteSpace=wrap;startSize=0;container=1;collapsible=0;childLayout=tableLayout;fontFamily=Times New Roman;fontSize=14;" vertex="1" parent="1">
          <mxGeometry y="950" width="1320" height="33" as="geometry" />
        </mxCell>
        <mxCell id="AgpCbO9FbuPy1deqUi69-55" value="" style="shape=partialRectangle;html=1;whiteSpace=wrap;collapsible=0;dropTarget=0;pointerEvents=0;fillColor=none;top=0;left=0;bottom=0;right=0;points=[[0,0.5],[1,0.5]];portConstraint=eastwest;fontFamily=Times New Roman;fontSize=14;" vertex="1" parent="AgpCbO9FbuPy1deqUi69-54">
          <mxGeometry width="1320" height="33" as="geometry" />
        </mxCell>
        <mxCell id="AgpCbO9FbuPy1deqUi69-56" value="Message Type: 7" style="shape=partialRectangle;html=1;whiteSpace=wrap;connectable=0;fillColor=#fff2cc;top=0;left=0;bottom=0;right=0;overflow=hidden;strokeColor=#d6b656;fontFamily=Times New Roman;fontSize=14;" vertex="1" parent="AgpCbO9FbuPy1deqUi69-55">
          <mxGeometry width="120" height="33" as="geometry" />
        </mxCell>
        <mxCell id="AgpCbO9FbuPy1deqUi69-57" value="Counter&lt;sub&gt;Bs&lt;/sub&gt;" style="shape=partialRectangle;html=1;whiteSpace=wrap;connectable=0;fillColor=#fff2cc;top=0;left=0;bottom=0;right=0;overflow=hidden;strokeColor=#d6b656;fontFamily=Times New Roman;fontSize=14;" vertex="1" parent="AgpCbO9FbuPy1deqUi69-55">
          <mxGeometry x="120" width="120" height="33" as="geometry" />
        </mxCell>
        <mxCell id="AgpCbO9FbuPy1deqUi69-58" value="GCM IV" style="shape=partialRectangle;html=1;whiteSpace=wrap;connectable=0;fillColor=#fff2cc;top=0;left=0;bottom=0;right=0;overflow=hidden;strokeColor=#d6b656;fontFamily=Times New Roman;fontSize=14;" vertex="1" parent="AgpCbO9FbuPy1deqUi69-55">
          <mxGeometry x="240" width="120" height="33" as="geometry" />
        </mxCell>
        <mxCell id="AgpCbO9FbuPy1deqUi69-59" value="g&lt;span style=&quot;font-size: 14px;&quot;&gt;&lt;sup style=&quot;font-size: 14px;&quot;&gt;b&#39;&lt;/sup&gt;&lt;/span&gt;" style="shape=partialRectangle;html=1;whiteSpace=wrap;connectable=0;fillColor=#fff2cc;top=0;left=0;bottom=0;right=0;overflow=hidden;strokeColor=#d6b656;fontFamily=Times New Roman;fontSize=14;" vertex="1" parent="AgpCbO9FbuPy1deqUi69-55">
          <mxGeometry x="360" width="120" height="33" as="geometry" />
        </mxCell>
        <mxCell id="AgpCbO9FbuPy1deqUi69-60" value="Counter&lt;sub&gt;Ba&lt;/sub&gt;" style="shape=partialRectangle;html=1;whiteSpace=wrap;connectable=0;top=0;left=0;bottom=0;right=0;overflow=hidden;fontSize=14;fillColor=#f8cecc;strokeColor=#b85450;fontFamily=Times New Roman;" vertex="1" parent="AgpCbO9FbuPy1deqUi69-55">
          <mxGeometry x="480" width="120" height="33" as="geometry" />
        </mxCell>
        <mxCell id="AgpCbO9FbuPy1deqUi69-61" value="GCM IV" style="shape=partialRectangle;html=1;whiteSpace=wrap;connectable=0;top=0;left=0;bottom=0;right=0;overflow=hidden;fontSize=14;fillColor=#f8cecc;strokeColor=#b85450;fontFamily=Times New Roman;" vertex="1" parent="AgpCbO9FbuPy1deqUi69-55">
          <mxGeometry x="600" width="120" height="33" as="geometry" />
        </mxCell>
        <mxCell id="AgpCbO9FbuPy1deqUi69-62" value="&lt;font&gt;&amp;lt;H(g&lt;sup style=&quot;font-size: 14px&quot;&gt;a&#39;&lt;/sup&gt;,&amp;nbsp;g&lt;sup style=&quot;font-size: 14px&quot;&gt;b&#39;&lt;/sup&gt;&lt;font style=&quot;font-size: 14px&quot;&gt;)&lt;/font&gt;&lt;/font&gt;&amp;gt;&lt;sub&gt;&lt;font style=&quot;font-size: 11px&quot;&gt;B&lt;/font&gt;&lt;/sub&gt;" style="shape=partialRectangle;html=1;whiteSpace=wrap;connectable=0;top=0;left=0;bottom=0;right=0;overflow=hidden;fontSize=14;fillColor=#d5e8d4;strokeColor=#82b366;fontFamily=Times New Roman;" vertex="1" parent="AgpCbO9FbuPy1deqUi69-55">
          <mxGeometry x="720" width="120" height="33" as="geometry" />
        </mxCell>
        <mxCell id="AgpCbO9FbuPy1deqUi69-63" value="Tag" style="shape=partialRectangle;html=1;whiteSpace=wrap;connectable=0;top=0;left=0;bottom=0;right=0;overflow=hidden;fontSize=14;fontFamily=Times New Roman;" vertex="1" parent="AgpCbO9FbuPy1deqUi69-55">
          <mxGeometry x="840" width="120" height="33" as="geometry" />
        </mxCell>
        <mxCell id="AgpCbO9FbuPy1deqUi69-64" value="Sender Username" style="shape=partialRectangle;html=1;whiteSpace=wrap;connectable=0;fillColor=#b0e3e6;top=0;left=0;bottom=0;right=0;overflow=hidden;strokeColor=#0e8088;fontFamily=Times New Roman;fontSize=14;" vertex="1" parent="AgpCbO9FbuPy1deqUi69-55">
          <mxGeometry x="960" width="120" height="33" as="geometry" />
        </mxCell>
        <mxCell id="AgpCbO9FbuPy1deqUi69-65" value="Receiver username" style="shape=partialRectangle;html=1;whiteSpace=wrap;connectable=0;fillColor=#b0e3e6;top=0;left=0;bottom=0;right=0;overflow=hidden;strokeColor=#0e8088;fontFamily=Times New Roman;fontSize=14;" vertex="1" parent="AgpCbO9FbuPy1deqUi69-55">
          <mxGeometry x="1080" width="120" height="33" as="geometry" />
        </mxCell>
        <mxCell id="AgpCbO9FbuPy1deqUi69-66" value="Tag" style="shape=partialRectangle;html=1;whiteSpace=wrap;connectable=0;top=0;left=0;bottom=0;right=0;overflow=hidden;fontFamily=Times New Roman;fontSize=14;" vertex="1" parent="AgpCbO9FbuPy1deqUi69-55">
          <mxGeometry x="1200" width="120" height="33" as="geometry" />
        </mxCell>
        <mxCell id="AgpCbO9FbuPy1deqUi69-69" value="" style="shape=table;html=1;whiteSpace=wrap;startSize=0;container=1;collapsible=0;childLayout=tableLayout;fontFamily=Times New Roman;fontSize=14;" vertex="1" parent="1">
          <mxGeometry y="1300" width="1320" height="33" as="geometry" />
        </mxCell>
        <mxCell id="AgpCbO9FbuPy1deqUi69-70" value="" style="shape=partialRectangle;html=1;whiteSpace=wrap;collapsible=0;dropTarget=0;pointerEvents=0;fillColor=none;top=0;left=0;bottom=0;right=0;points=[[0,0.5],[1,0.5]];portConstraint=eastwest;fontFamily=Times New Roman;fontSize=14;" vertex="1" parent="AgpCbO9FbuPy1deqUi69-69">
          <mxGeometry width="1320" height="33" as="geometry" />
        </mxCell>
        <mxCell id="AgpCbO9FbuPy1deqUi69-71" value="Message Type: 10" style="shape=partialRectangle;html=1;whiteSpace=wrap;connectable=0;fillColor=#fff2cc;top=0;left=0;bottom=0;right=0;overflow=hidden;strokeColor=#d6b656;fontFamily=Times New Roman;fontSize=14;" vertex="1" parent="AgpCbO9FbuPy1deqUi69-70">
          <mxGeometry width="120" height="33" as="geometry" />
        </mxCell>
        <mxCell id="AgpCbO9FbuPy1deqUi69-72" value="Counter&lt;sub&gt;Sb&lt;/sub&gt;" style="shape=partialRectangle;html=1;whiteSpace=wrap;connectable=0;fillColor=#fff2cc;top=0;left=0;bottom=0;right=0;overflow=hidden;strokeColor=#d6b656;fontFamily=Times New Roman;fontSize=14;" vertex="1" parent="AgpCbO9FbuPy1deqUi69-70">
          <mxGeometry x="120" width="120" height="33" as="geometry" />
        </mxCell>
        <mxCell id="AgpCbO9FbuPy1deqUi69-73" value="GCM IV" style="shape=partialRectangle;html=1;whiteSpace=wrap;connectable=0;fillColor=#fff2cc;top=0;left=0;bottom=0;right=0;overflow=hidden;strokeColor=#d6b656;fontFamily=Times New Roman;fontSize=14;" vertex="1" parent="AgpCbO9FbuPy1deqUi69-70">
          <mxGeometry x="240" width="120" height="33" as="geometry" />
        </mxCell>
        <mxCell id="AgpCbO9FbuPy1deqUi69-74" value="RSA Public Key A" style="shape=partialRectangle;html=1;whiteSpace=wrap;connectable=0;fillColor=#fff2cc;top=0;left=0;bottom=0;right=0;overflow=hidden;strokeColor=#d6b656;fontFamily=Times New Roman;fontSize=14;" vertex="1" parent="AgpCbO9FbuPy1deqUi69-70">
          <mxGeometry x="360" width="120" height="33" as="geometry" />
        </mxCell>
        <mxCell id="AgpCbO9FbuPy1deqUi69-75" value="Counter&lt;sub&gt;Ab&lt;/sub&gt;" style="shape=partialRectangle;html=1;whiteSpace=wrap;connectable=0;top=0;left=0;bottom=0;right=0;overflow=hidden;fontSize=14;fillColor=#f8cecc;strokeColor=#b85450;fontFamily=Times New Roman;" vertex="1" parent="AgpCbO9FbuPy1deqUi69-70">
          <mxGeometry x="480" width="120" height="33" as="geometry" />
        </mxCell>
        <mxCell id="AgpCbO9FbuPy1deqUi69-76" value="&lt;span&gt;GCM IV&lt;/span&gt;" style="shape=partialRectangle;html=1;whiteSpace=wrap;connectable=0;top=0;left=0;bottom=0;right=0;overflow=hidden;fontSize=14;fillColor=#f8cecc;strokeColor=#b85450;fontFamily=Times New Roman;" vertex="1" parent="AgpCbO9FbuPy1deqUi69-70">
          <mxGeometry x="600" width="120" height="33" as="geometry" />
        </mxCell>
        <mxCell id="AgpCbO9FbuPy1deqUi69-77" value="&amp;lt;H(&lt;span&gt;g&lt;/span&gt;&lt;sup style=&quot;font-size: 14px&quot;&gt;b&#39;&lt;/sup&gt;&lt;span&gt;&amp;nbsp;g&lt;/span&gt;&lt;sup style=&quot;font-size: 14px&quot;&gt;a&#39;&lt;/sup&gt;&lt;font style=&quot;font-size: 14px&quot;&gt;)&lt;/font&gt;&amp;gt;&lt;font style=&quot;font-size: 11px&quot;&gt;&lt;sub&gt;A&lt;/sub&gt;&lt;/font&gt;" style="shape=partialRectangle;html=1;whiteSpace=wrap;connectable=0;top=0;left=0;bottom=0;right=0;overflow=hidden;fontSize=14;fillColor=#d5e8d4;strokeColor=#82b366;fontFamily=Times New Roman;" vertex="1" parent="AgpCbO9FbuPy1deqUi69-70">
          <mxGeometry x="720" width="120" height="33" as="geometry" />
        </mxCell>
        <mxCell id="AgpCbO9FbuPy1deqUi69-78" value="Tag" style="shape=partialRectangle;html=1;whiteSpace=wrap;connectable=0;top=0;left=0;bottom=0;right=0;overflow=hidden;fontSize=14;fontFamily=Times New Roman;" vertex="1" parent="AgpCbO9FbuPy1deqUi69-70">
          <mxGeometry x="840" width="120" height="33" as="geometry" />
        </mxCell>
        <mxCell id="AgpCbO9FbuPy1deqUi69-79" value="Sender Username" style="shape=partialRectangle;html=1;whiteSpace=wrap;connectable=0;fillColor=#b0e3e6;top=0;left=0;bottom=0;right=0;overflow=hidden;strokeColor=#0e8088;fontFamily=Times New Roman;fontSize=14;" vertex="1" parent="AgpCbO9FbuPy1deqUi69-70">
          <mxGeometry x="960" width="120" height="33" as="geometry" />
        </mxCell>
        <mxCell id="AgpCbO9FbuPy1deqUi69-80" value="Receiver username" style="shape=partialRectangle;html=1;whiteSpace=wrap;connectable=0;fillColor=#b0e3e6;top=0;left=0;bottom=0;right=0;overflow=hidden;strokeColor=#0e8088;fontFamily=Times New Roman;fontSize=14;" vertex="1" parent="AgpCbO9FbuPy1deqUi69-70">
          <mxGeometry x="1080" width="120" height="33" as="geometry" />
        </mxCell>
        <mxCell id="AgpCbO9FbuPy1deqUi69-81" value="Tag" style="shape=partialRectangle;html=1;whiteSpace=wrap;connectable=0;top=0;left=0;bottom=0;right=0;overflow=hidden;fontSize=14;fontFamily=Times New Roman;" vertex="1" parent="AgpCbO9FbuPy1deqUi69-70">
          <mxGeometry x="1200" width="120" height="33" as="geometry" />
        </mxCell>
        <mxCell id="AgpCbO9FbuPy1deqUi69-82" value="" style="endArrow=classic;startArrow=classic;html=1;fontFamily=Times New Roman;fontSize=14;" edge="1" parent="1">
          <mxGeometry width="50" height="50" relative="1" as="geometry">
            <mxPoint x="-4.547473508864641e-13" y="1020" as="sourcePoint" />
            <mxPoint x="960" y="1020" as="targetPoint" />
          </mxGeometry>
        </mxCell>
        <mxCell id="AgpCbO9FbuPy1deqUi69-83" value="Outer AAD" style="edgeLabel;html=1;align=center;verticalAlign=middle;resizable=0;points=[];fontFamily=Times New Roman;fontSize=14;" vertex="1" connectable="0" parent="AgpCbO9FbuPy1deqUi69-82">
          <mxGeometry x="-0.1556" relative="1" as="geometry">
            <mxPoint x="54" as="offset" />
          </mxGeometry>
        </mxCell>
        <mxCell id="AgpCbO9FbuPy1deqUi69-84" value="" style="endArrow=classic;startArrow=classic;html=1;fontFamily=Times New Roman;fontSize=14;" edge="1" parent="1">
          <mxGeometry width="50" height="50" relative="1" as="geometry">
            <mxPoint x="479.99999999999955" y="1000" as="sourcePoint" />
            <mxPoint x="720" y="1000" as="targetPoint" />
          </mxGeometry>
        </mxCell>
        <mxCell id="AgpCbO9FbuPy1deqUi69-85" value="Inner AAD" style="edgeLabel;html=1;align=center;verticalAlign=middle;resizable=0;points=[];fontFamily=Times New Roman;fontSize=14;" vertex="1" connectable="0" parent="AgpCbO9FbuPy1deqUi69-84">
          <mxGeometry x="-0.1556" relative="1" as="geometry">
            <mxPoint x="23" as="offset" />
          </mxGeometry>
        </mxCell>
        <mxCell id="AgpCbO9FbuPy1deqUi69-90" value="" style="endArrow=classic;startArrow=classic;html=1;fontFamily=Times New Roman;fontSize=14;" edge="1" parent="1">
          <mxGeometry width="50" height="50" relative="1" as="geometry">
            <mxPoint y="1140" as="sourcePoint" />
            <mxPoint x="1080" y="1140" as="targetPoint" />
          </mxGeometry>
        </mxCell>
        <mxCell id="AgpCbO9FbuPy1deqUi69-91" value="Outer AAD" style="edgeLabel;html=1;align=center;verticalAlign=middle;resizable=0;points=[];fontFamily=Times New Roman;fontSize=14;" vertex="1" connectable="0" parent="AgpCbO9FbuPy1deqUi69-90">
          <mxGeometry x="-0.1556" relative="1" as="geometry">
            <mxPoint x="54" as="offset" />
          </mxGeometry>
        </mxCell>
        <mxCell id="AgpCbO9FbuPy1deqUi69-92" value="" style="endArrow=classic;startArrow=classic;html=1;fontFamily=Times New Roman;fontSize=14;" edge="1" parent="1">
          <mxGeometry width="50" height="50" relative="1" as="geometry">
            <mxPoint x="600" y="1120" as="sourcePoint" />
            <mxPoint x="840" y="1120" as="targetPoint" />
          </mxGeometry>
        </mxCell>
        <mxCell id="AgpCbO9FbuPy1deqUi69-93" value="Inner AAD" style="edgeLabel;html=1;align=center;verticalAlign=middle;resizable=0;points=[];fontFamily=Times New Roman;fontSize=14;" vertex="1" connectable="0" parent="AgpCbO9FbuPy1deqUi69-92">
          <mxGeometry x="-0.1556" relative="1" as="geometry">
            <mxPoint x="23" as="offset" />
          </mxGeometry>
        </mxCell>
        <mxCell id="AgpCbO9FbuPy1deqUi69-94" value="" style="endArrow=classic;startArrow=classic;html=1;fontFamily=Times New Roman;fontSize=14;" edge="1" parent="1">
          <mxGeometry width="50" height="50" relative="1" as="geometry">
            <mxPoint x="-4.547473508864641e-13" y="1260" as="sourcePoint" />
            <mxPoint x="840" y="1260" as="targetPoint" />
          </mxGeometry>
        </mxCell>
        <mxCell id="AgpCbO9FbuPy1deqUi69-95" value="Outer AAD" style="edgeLabel;html=1;align=center;verticalAlign=middle;resizable=0;points=[];fontFamily=Times New Roman;fontSize=14;" vertex="1" connectable="0" parent="AgpCbO9FbuPy1deqUi69-94">
          <mxGeometry x="-0.1556" relative="1" as="geometry">
            <mxPoint x="54" as="offset" />
          </mxGeometry>
        </mxCell>
        <mxCell id="AgpCbO9FbuPy1deqUi69-96" value="" style="endArrow=classic;startArrow=classic;html=1;fontFamily=Times New Roman;fontSize=14;" edge="1" parent="1">
          <mxGeometry width="50" height="50" relative="1" as="geometry">
            <mxPoint x="359.99999999999955" y="1240" as="sourcePoint" />
            <mxPoint x="600" y="1240" as="targetPoint" />
          </mxGeometry>
        </mxCell>
        <mxCell id="AgpCbO9FbuPy1deqUi69-97" value="Inner AAD" style="edgeLabel;html=1;align=center;verticalAlign=middle;resizable=0;points=[];fontFamily=Times New Roman;fontSize=14;" vertex="1" connectable="0" parent="AgpCbO9FbuPy1deqUi69-96">
          <mxGeometry x="-0.1556" relative="1" as="geometry">
            <mxPoint x="23" as="offset" />
          </mxGeometry>
        </mxCell>
        <mxCell id="AgpCbO9FbuPy1deqUi69-98" value="" style="endArrow=classic;startArrow=classic;html=1;fontFamily=Times New Roman;fontSize=14;" edge="1" parent="1">
          <mxGeometry width="50" height="50" relative="1" as="geometry">
            <mxPoint x="-4.547473508864641e-13" y="1371" as="sourcePoint" />
            <mxPoint x="960" y="1371" as="targetPoint" />
          </mxGeometry>
        </mxCell>
        <mxCell id="AgpCbO9FbuPy1deqUi69-99" value="Outer AAD" style="edgeLabel;html=1;align=center;verticalAlign=middle;resizable=0;points=[];fontFamily=Times New Roman;fontSize=14;" vertex="1" connectable="0" parent="AgpCbO9FbuPy1deqUi69-98">
          <mxGeometry x="-0.1556" relative="1" as="geometry">
            <mxPoint x="54" as="offset" />
          </mxGeometry>
        </mxCell>
        <mxCell id="AgpCbO9FbuPy1deqUi69-100" value="" style="endArrow=classic;startArrow=classic;html=1;fontFamily=Times New Roman;fontSize=14;" edge="1" parent="1">
          <mxGeometry width="50" height="50" relative="1" as="geometry">
            <mxPoint x="479.99999999999955" y="1351" as="sourcePoint" />
            <mxPoint x="720" y="1351" as="targetPoint" />
          </mxGeometry>
        </mxCell>
        <mxCell id="AgpCbO9FbuPy1deqUi69-101" value="Inner AAD" style="edgeLabel;html=1;align=center;verticalAlign=middle;resizable=0;points=[];fontFamily=Times New Roman;fontSize=14;" vertex="1" connectable="0" parent="AgpCbO9FbuPy1deqUi69-100">
          <mxGeometry x="-0.1556" relative="1" as="geometry">
            <mxPoint x="23" as="offset" />
          </mxGeometry>
        </mxCell>
        <mxCell id="AgpCbO9FbuPy1deqUi69-102" value="" style="rounded=0;whiteSpace=wrap;html=1;fillColor=#fff2cc;strokeColor=#d6b656;fontFamily=Times New Roman;fontSize=14;" vertex="1" parent="1">
          <mxGeometry x="1190" y="1445" width="50" height="20" as="geometry" />
        </mxCell>
        <mxCell id="AgpCbO9FbuPy1deqUi69-103" value="" style="rounded=0;whiteSpace=wrap;html=1;fontFamily=Times New Roman;fontSize=14;" vertex="1" parent="1">
          <mxGeometry x="1190" y="1395" width="50" height="20" as="geometry" />
        </mxCell>
        <mxCell id="AgpCbO9FbuPy1deqUi69-104" value="" style="rounded=0;whiteSpace=wrap;html=1;fillColor=#b0e3e6;strokeColor=#0e8088;fontFamily=Times New Roman;fontSize=14;" vertex="1" parent="1">
          <mxGeometry x="1190" y="1495" width="50" height="20" as="geometry" />
        </mxCell>
        <mxCell id="AgpCbO9FbuPy1deqUi69-105" value="&lt;div style=&quot;text-align: center&quot;&gt;&lt;span style=&quot;font-size: 14px&quot;&gt;&lt;font face=&quot;times new roman&quot;&gt;Clear Message&lt;/font&gt;&lt;/span&gt;&lt;/div&gt;" style="text;whiteSpace=wrap;html=1;fontColor=none;" vertex="1" parent="1">
          <mxGeometry x="1250" y="1390" width="110" height="30" as="geometry" />
        </mxCell>
        <mxCell id="AgpCbO9FbuPy1deqUi69-106" value="&lt;span style=&quot;color: rgb(0, 0, 0); font-family: &amp;quot;times new roman&amp;quot;; font-size: 14px; font-style: normal; font-weight: 400; letter-spacing: normal; text-align: center; text-indent: 0px; text-transform: none; word-spacing: 0px; background-color: rgb(248, 249, 250); display: inline; float: none;&quot;&gt;Encrypted by session key&amp;nbsp;&amp;nbsp;&lt;/span&gt;&lt;br style=&quot;color: rgb(0, 0, 0); font-family: &amp;quot;times new roman&amp;quot;; font-size: 14px; font-style: normal; font-weight: 400; letter-spacing: normal; text-align: center; text-indent: 0px; text-transform: none; word-spacing: 0px; background-color: rgb(248, 249, 250);&quot;&gt;&lt;span style=&quot;color: rgb(0, 0, 0); font-family: &amp;quot;times new roman&amp;quot;; font-size: 14px; font-style: normal; font-weight: 400; letter-spacing: normal; text-align: center; text-indent: 0px; text-transform: none; word-spacing: 0px; background-color: rgb(248, 249, 250); display: inline; float: none;&quot;&gt;between client and the server&lt;/span&gt;" style="text;whiteSpace=wrap;html=1;fontColor=none;" vertex="1" parent="1">
          <mxGeometry x="1250" y="1485" width="190" height="40" as="geometry" />
        </mxCell>
        <mxCell id="AgpCbO9FbuPy1deqUi69-107" value="&lt;span style=&quot;color: rgb(0 , 0 , 0) ; font-family: &amp;#34;times new roman&amp;#34; ; font-size: 14px ; font-style: normal ; font-weight: 400 ; letter-spacing: normal ; text-align: center ; text-indent: 0px ; text-transform: none ; word-spacing: 0px ; background-color: rgb(248 , 249 , 250) ; display: inline ; float: none&quot;&gt;Authenticated by session key&amp;nbsp;&amp;nbsp;&lt;/span&gt;&lt;br style=&quot;color: rgb(0 , 0 , 0) ; font-family: &amp;#34;times new roman&amp;#34; ; font-size: 14px ; font-style: normal ; font-weight: 400 ; letter-spacing: normal ; text-align: center ; text-indent: 0px ; text-transform: none ; word-spacing: 0px ; background-color: rgb(248 , 249 , 250)&quot;&gt;&lt;span style=&quot;color: rgb(0 , 0 , 0) ; font-family: &amp;#34;times new roman&amp;#34; ; font-size: 14px ; font-style: normal ; font-weight: 400 ; letter-spacing: normal ; text-align: center ; text-indent: 0px ; text-transform: none ; word-spacing: 0px ; background-color: rgb(248 , 249 , 250) ; display: inline ; float: none&quot;&gt;between client and the server&lt;/span&gt;" style="text;whiteSpace=wrap;html=1;fontColor=none;" vertex="1" parent="1">
          <mxGeometry x="1250" y="1435" width="190" height="40" as="geometry" />
        </mxCell>
        <mxCell id="AgpCbO9FbuPy1deqUi69-114" value="" style="rounded=0;whiteSpace=wrap;html=1;fillColor=#f8cecc;strokeColor=#b85450;fontFamily=Times New Roman;fontSize=14;" vertex="1" parent="1">
          <mxGeometry x="1190" y="1545" width="50" height="20" as="geometry" />
        </mxCell>
        <mxCell id="AgpCbO9FbuPy1deqUi69-115" value="&lt;span style=&quot;color: rgb(0 , 0 , 0) ; font-family: &amp;#34;times new roman&amp;#34; ; font-size: 14px ; font-style: normal ; font-weight: 400 ; letter-spacing: normal ; text-align: center ; text-indent: 0px ; text-transform: none ; word-spacing: 0px ; background-color: rgb(248 , 249 , 250) ; display: inline ; float: none&quot;&gt;Authenticated&amp;nbsp; by session key&amp;nbsp;&amp;nbsp;&lt;/span&gt;&lt;br style=&quot;color: rgb(0 , 0 , 0) ; font-family: &amp;#34;times new roman&amp;#34; ; font-size: 14px ; font-style: normal ; font-weight: 400 ; letter-spacing: normal ; text-align: center ; text-indent: 0px ; text-transform: none ; word-spacing: 0px ; background-color: rgb(248 , 249 , 250)&quot;&gt;&lt;span style=&quot;color: rgb(0 , 0 , 0) ; font-family: &amp;#34;times new roman&amp;#34; ; font-size: 14px ; font-style: normal ; font-weight: 400 ; letter-spacing: normal ; text-align: center ; text-indent: 0px ; text-transform: none ; word-spacing: 0px ; background-color: rgb(248 , 249 , 250) ; display: inline ; float: none&quot;&gt;between two clients&lt;/span&gt;" style="text;whiteSpace=wrap;html=1;fontColor=none;" vertex="1" parent="1">
          <mxGeometry x="1250" y="1540" width="190" height="40" as="geometry" />
        </mxCell>
        <mxCell id="AgpCbO9FbuPy1deqUi69-118" value="" style="rounded=0;whiteSpace=wrap;html=1;fillColor=#d5e8d4;strokeColor=#82b366;fontFamily=Times New Roman;fontSize=14;" vertex="1" parent="1">
          <mxGeometry x="1190" y="1595" width="50" height="20" as="geometry" />
        </mxCell>
        <mxCell id="AgpCbO9FbuPy1deqUi69-119" value="&lt;span style=&quot;color: rgb(0 , 0 , 0) ; font-family: &amp;#34;times new roman&amp;#34; ; font-size: 14px ; font-style: normal ; font-weight: 400 ; letter-spacing: normal ; text-align: center ; text-indent: 0px ; text-transform: none ; word-spacing: 0px ; background-color: rgb(248 , 249 , 250) ; display: inline ; float: none&quot;&gt;Encrypted by session key&amp;nbsp;&amp;nbsp;&lt;/span&gt;&lt;br style=&quot;color: rgb(0 , 0 , 0) ; font-family: &amp;#34;times new roman&amp;#34; ; font-size: 14px ; font-style: normal ; font-weight: 400 ; letter-spacing: normal ; text-align: center ; text-indent: 0px ; text-transform: none ; word-spacing: 0px ; background-color: rgb(248 , 249 , 250)&quot;&gt;&lt;span style=&quot;color: rgb(0 , 0 , 0) ; font-family: &amp;#34;times new roman&amp;#34; ; font-size: 14px ; font-style: normal ; font-weight: 400 ; letter-spacing: normal ; text-align: center ; text-indent: 0px ; text-transform: none ; word-spacing: 0px ; background-color: rgb(248 , 249 , 250) ; display: inline ; float: none&quot;&gt;between two clients&lt;/span&gt;" style="text;whiteSpace=wrap;html=1;fontColor=none;" vertex="1" parent="1">
          <mxGeometry x="1250" y="1585" width="190" height="40" as="geometry" />
        </mxCell>
      </root>
    </mxGraphModel>
  </diagram>
</mxfile>
